PathFileType	4	(X/Y/Z)	C:/Users/beibeiliu/ov580/test_trc/User3\sequence.25_training_dense_left.trc
DataRate	CameraRate	NumFrames	NumMarkers	Units	OrigDataRate	OrigDataStartFrame	OrigNumFrames
120	120	15	19	mm	120	51	75
Frame#	Time	ThumbCMC			ThumbMCP			ThumbIP			ThumbTip			IndexMCP			IndexPIP			IndexTip			MiddleMCP			MiddlePIP			MiddleTip			RingMCP			RingPIP			RingTip			PinkyMCP			PinkyPIP			PinkyTip			BackHand1			BackHand2			BackHand3	
		X0	Y0	Z0	X1	Y1	Z1	X2	Y2	Z2	X3	Y3	Z3	X4	Y4	Z4	X5	Y5	Z5	X6	Y6	Z6	X7	Y7	Z7	X8	Y8	Z8	X9	Y9	Z9	X10	Y10	Z10	X11	Y11	Z11	X12	Y12	Z12	X13	Y13	Z13	X14	Y14	Z14	X15	Y15	Z15	X16	Y16	Z16	X17	Y17	Z17	X18	Y18	Z18	
50	0.416667	-168.774	12.6005	14.4813	-161.294	14.817	-19.7411	-158.543	15.7011	-48.3532	-162.307	13.2125	-74.536	-210.565	54.3094	-37.4356	-215.467	56.5791	-71.4306	-204.346	46.7813	-94.2707	-233.996	47.5774	-40.6958	-234.523	50.2697	-74.1579	-223.073	29.8685	-100.13	-244.817	30.2305	-35.6487	-248.191	28.5191	-69.5073	-232.875	10.5724	-92.0229	-252.148	8.96711	-31.0507	-255.553	8.92247	-55.2496	-243.797	2.14916	-77.7966	-236.979	13.6575	15.9994	-230.811	1.51116	38.8871	-207.812	26.7595	26.0288	
51	0.425	-150.268	-0.118181	9.99632	-138.698	-2.46736	-22.5817	-140.682	-2.39343	-52.2049	-148.587	-3.65397	-79.9712	-181.169	51.4256	-45.7468	-181.5	53.6202	-77.0064	-179.822	37.4587	-102.967	-203.103	52.0094	-45.6664	-202.711	56.6474	-76.5666	-202.946	29.2635	-109.019	-217.579	40.4967	-41.0846	-221.853	40.5204	-72.8565	-221.35	19.5471	-94.0619	-235.983	20.962	-30.2515	-236.556	23.5714	-59.7355	-228.237	11.0034	-79.7539	-213.675	24.159	10.0465	-213.354	8.93166	35.6312	-180.628	27.8231	20.1928	
52	0.433333	-139.66	-9.34324	6.27835	-127.616	-17.7397	-20.8922	-123.947	-19.4635	-58.0524	-135.061	-24.1732	-78.763	-160.731	36.8978	-51.9981	-160.828	36.8937	-83.5594	-162.417	17.1494	-107.542	-182.624	43.5741	-56.8539	-180.452	42.3668	-85.7615	-180.595	14.7352	-113.116	-201.63	32.1336	-45.8046	-202.305	31.4476	-77.7818	-204.792	7.22009	-98.9799	-217.796	19.8837	-35.1537	-219.477	19.6197	-63.6357	-218.086	1.98128	-86.2954	-194.494	22.1515	3.3887	-196.635	11.2222	34.9572	-161.318	21.9761	12.7309	
53	0.441667	-125.419	-19.6595	10.1396	-114.037	-30.1789	-22.3101	-111.088	-39.1977	-52.4645	-122.352	-45.4382	-71.2683	-143.566	19.9026	-56.8096	-142.683	14.0803	-89.4763	-143.617	-5.63301	-107.901	-161.296	26.3385	-63.6457	-164.454	18.5731	-95.0492	-168.458	-11.108	-114.274	-180.645	20.0277	-54.0643	-187.926	12.9964	-81.4568	-188.182	-11.6725	-98.6982	-200.073	11.0313	-38.4501	-203.268	6.85869	-66.3454	-203.365	-13.245	-84.3116	-182.791	18.0909	3.8943	-181.337	11.5291	29.6859	-145.845	15.1796	8.77442	
54	0.45	-116.555	-24.4259	9.70066	-106.767	-41.1838	-12.9546	-102.598	-55.3752	-42.144	-113.472	-65.1274	-60.7079	-133.324	0.890582	-60.4951	-131.75	-13.359	-92.5759	-132.873	-36.2272	-103.742	-155.633	6.05827	-65.8002	-152.935	-10.4395	-96.2142	-155.478	-44.2092	-108.651	-175.463	0.746832	-56.0008	-179.929	-14.8391	-84.2365	-176.9	-42.8456	-91.2358	-191.781	-4.53942	-43.9119	-194.54	-15.8234	-67.2195	-190.469	-41.5764	-76.1644	-173.445	11.0887	-2.4599	-174.794	6.51684	27.7004	-137.806	6.58239	7.5634	
55	0.458333	-113.868	-28.8607	15.7935	-99.8033	-51.1242	-6.52361	-98.9897	-68.691	-28.7766	-104.734	-85.9417	-48.6912	-127.7	-19.9275	-58.045	-124.634	-41.43	-84.45	-124.352	-70.1186	-89.7921	-146.273	-18.3429	-66.0671	-143.391	-41.5418	-91.7051	-147.388	-74.989	-92.7814	-165.486	-21.0662	-54.5509	-170.316	-47.1275	-79.7528	-166.986	-75.1766	-75.6275	-187.05	-25.3585	-42.2237	-186.152	-41.8406	-61.9796	-181.817	-74.8437	-60.9425	-165.834	-0.730978	-5.28942	-166.976	3.59333	21.8219	-134.705	3.10794	7.95711	
56	0.466667	-109.967	-30.3245	20.3412	-93.5829	-54.8931	5.45814	-87.4681	-77.842	-13.9192	-94.1059	-97.4564	-27.3742	-120.103	-40.2089	-54.5761	-112.935	-65.3679	-72.0901	-108.791	-93.0869	-69.7682	-140.851	-43.2983	-62.6727	-136.308	-72.6889	-78.6136	-134.367	-107.268	-67.768	-160.495	-46.1684	-49.4109	-159.296	-77.5112	-65.784	-149.716	-103.82	-51.9257	-178.662	-48.6121	-34.2063	-176.844	-70.0363	-51.5993	-168.308	-99.69	-42.2687	-169.592	-14.943	-10.4629	-172.574	-3.00588	21.5556	-134	-6.66717	3.84408	
57	0.475	-116.472	-19.3394	25.9435	-94.6188	-40.9755	13.6479	-83.9149	-66.8688	-3.80669	-84.7467	-87.5328	-12.9913	-117.058	-46.5316	-50.5144	-106.355	-71.955	-62.0611	-92.7946	-96.595	-52.3686	-137.35	-54.6766	-56.6422	-124.407	-79.9955	-67.1716	-110.156	-113.174	-46.5766	-152.15	-63.4591	-47.1013	-140.937	-90.8182	-54.5352	-129.238	-110.763	-36.7925	-172.175	-67.6949	-29.5033	-161.613	-93.8294	-39.8672	-146.831	-113.265	-27.6935	-173.501	-27.2782	-6.66294	-177.123	-10.6919	17.6796	-145.647	-5.4095	4.01486	
58	0.483333	-124.192	-0.101237	23.5026	-98.0751	-18.1508	13.0236	-77.921	-35.933	1.44259	-71.3632	-61.0451	-9.09641	-119.627	-34.5688	-48.0716	-98.8118	-55.3807	-59.0597	-75.0747	-75.6806	-45.63	-132.859	-50.3835	-52.1771	-105.282	-73.4249	-59.973	-82.9814	-91.9804	-37.2595	-144.992	-63.4229	-40.9276	-122.11	-86.9972	-46.1742	-102.989	-98.2346	-28.7819	-159.263	-75.4435	-25.5014	-139.684	-92.3131	-32.3012	-116.11	-104.478	-16.5405	-173.485	-31.7955	-9.94447	-187.973	-20.0329	17.8609	-159.671	-3.66829	-0.725671	
59	0.491667	-139.74	15.6723	19.0005	-108.15	7.62906	7.558	-83.2876	-3.11474	-4.49434	-70.3296	-25.3348	-12.9822	-121.765	-19.0326	-55.0942	-93.0583	-28.2146	-63.6273	-71.7931	-37.8577	-53.3786	-128.909	-40.4555	-56.6424	-99.8729	-47.5821	-64.0974	-71.2189	-57.9524	-41.4782	-134.303	-56.7978	-43.4929	-104.789	-66.5093	-47.4053	-79.8527	-70.8783	-26.9381	-144.363	-70.2288	-22.2133	-115.935	-81.7618	-29.4672	-95.3061	-79.8757	-18.1482	-178.031	-38.6479	-5.8225	-192.068	-29.9286	16.7664	-171.366	0.273831	-3.92366	
60	0.5	-157.866	22.6433	12.3028	-127.152	25.6789	-1.6913	-97.1675	24.4708	-18.9681	-81.3444	9.2938	-25.6529	-138.048	-8.44871	-56.6687	-109.089	-9.86718	-72.1735	-76.8636	-6.75487	-64.1992	-134.035	-26.5061	-61.3488	-104.871	-27.7196	-71.1305	-68.7037	-17.9968	-53.1439	-131.404	-46.6724	-46.5467	-100.688	-48.3005	-53.8126	-76.2889	-37.7367	-41.0147	-131.551	-59.6711	-26.0741	-105.328	-63.6696	-34.3794	-80.4546	-55.2613	-28.9912	-171.892	-41.0685	-10.2692	-188.072	-36.2354	19.3679	-180.94	-10.1	-3.63726	
61	0.508333	-175.582	20.2251	5.75117	-150.765	35.0122	-11.8832	-127.297	42.3292	-30.2762	-103.191	34.759	-43.323	-152.208	-10.934	-61.5282	-126.607	-1.63	-81.413	-102.226	16.6237	-80.9002	-141.291	-26.2828	-66.2974	-113.298	-16.554	-79.7961	-85.7192	5.44863	-68.6938	-130.746	-43.154	-47.9515	-105.342	-32.2471	-63.6121	-80.6355	-13.7883	-52.8097	-121.734	-53.88	-29.8886	-99.6142	-45.0158	-42.7252	-82.0114	-26.4501	-41.4938	-165.333	-47.6672	-8.61175	-178.181	-45.2066	19.3296	-191.478	-17.0857	-3.7955	
62	0.516667	-192.639	5.77818	2.58459	-175.917	23.7603	-24.5204	-160.223	33.6854	-43.1576	-136.589	31.6774	-60.3058	-168.089	-25.6108	-68.516	-152.179	-13.1304	-90.1411	-129.733	10.8198	-93.4564	-154.167	-39.9804	-67.3733	-133.628	-22.8568	-90.3743	-110.408	3.25488	-86.6639	-136.34	-48.2147	-53.4915	-119.877	-34.785	-73.3584	-100.418	-6.08621	-69.7567	-124.157	-51.9037	-33.0861	-106.083	-40.9051	-50.8446	-91.9964	-17.0764	-57.0079	-166.836	-55.8919	-2.42383	-173.957	-52.0949	23.1826	-193.67	-35.4132	-1.42236	
63	0.525	-203.717	-9.90364	1.02797	-196.232	5.67476	-28.5995	-184.734	12.7496	-54.1657	-164.627	11.3415	-72.8233	-189.309	-47.7925	-66.5499	-176.23	-35.6104	-94.2183	-161.33	-10.9242	-103.584	-171.4	-62.049	-67.9401	-159.877	-48.9993	-93.534	-142.234	-15.4365	-100.018	-154.662	-64.7727	-52.4068	-140.435	-52.0515	-79.5894	-125.118	-25.1177	-82.857	-139.754	-63.6359	-35.4099	-123.204	-55.329	-58.0219	-117.735	-30.0927	-70.8376	-173.284	-66.5496	-0.893587	-172.904	-63.9141	30.0525	-202.831	-51.424	1.90932	
64	0.533333	-209.23	-16.7523	1.9778	-203.969	-2.78489	-27.6742	-197.141	-2.22197	-62.3789	-181.022	-9.49016	-77.8782	-212.515	-62.2897	-61.9446	-202.225	-54.4605	-91.777	-188.897	-35.5052	-104.421	-202.331	-76.8249	-62.1377	-187.702	-68.5165	-92.3712	-165.264	-41.7008	-103.377	-179.674	-84.5224	-51.6653	-168.658	-76.5799	-78.4832	-151.895	-49.8759	-88.1571	-164.699	-81.2954	-36.9545	-152.451	-77.9281	-62.0919	-138.422	-58.2908	-74.6376	-189.508	-76.8491	4.63392	-186.025	-67.002	32.2159	-214.839	-52.2443	9.45672	
